<svg xmlns="http://www.w3.org/2000/svg" viewBox="0 0 611.99 72.6"><defs><style>.cls-1{fill:#00b4ff;}.cls-2{opacity:0.25;}</style></defs><g id="Capa_2" data-name="Capa 2"><g id="Capa_1-2" data-name="Capa 1"><path class="cls-1" d="M101.13,24.75V.84h6.75a10.87,10.87,0,0,1,5.52,1.38,9.4,9.4,0,0,1,3.7,3.92A12.79,12.79,0,0,1,118.42,12v1.53a12.78,12.78,0,0,1-1.3,5.92,9.27,9.27,0,0,1-3.73,3.91,11.55,11.55,0,0,1-5.64,1.4Zm3.15-21.33V22.17h3.32a7.18,7.18,0,0,0,5.67-2.27,9.37,9.37,0,0,0,2-6.46V12.05a9.56,9.56,0,0,0-1.91-6.34A6.81,6.81,0,0,0,108,3.42Z"/><path class="cls-1" d="M128.48,24.75h-3.15V.84h3.15Z"/><path class="cls-1" d="M144.93,15.08h-5.61v9.67h-3.17V.84h7.91a9.37,9.37,0,0,1,6.22,1.84A6.62,6.62,0,0,1,152.45,8a6.44,6.44,0,0,1-1.2,3.89,7.18,7.18,0,0,1-3.36,2.48l5.61,10.15v.2h-3.38Zm-5.61-2.58h4.84a5.48,5.48,0,0,0,3.74-1.22A4.13,4.13,0,0,0,149.28,8,4.33,4.33,0,0,0,148,4.62a5.58,5.58,0,0,0-3.82-1.2h-4.82Z"/><path class="cls-1" d="M172.3,13.7H161.94v8.47h12v2.58H158.79V.84h15V3.42H161.94v7.7H172.3Z"/><path class="cls-1" d="M197.41,17.16a8.85,8.85,0,0,1-2.8,5.86,9.2,9.2,0,0,1-6.27,2.06,8.42,8.42,0,0,1-6.79-3A12.25,12.25,0,0,1,179,13.91v-2.3a13.54,13.54,0,0,1,1.19-5.86,8.85,8.85,0,0,1,3.37-3.88A9.35,9.35,0,0,1,188.62.51a8.63,8.63,0,0,1,6.11,2.13,9,9,0,0,1,2.68,5.88h-3.17a6.88,6.88,0,0,0-1.79-4.15,5.4,5.4,0,0,0-3.83-1.28,5.65,5.65,0,0,0-4.74,2.23,10.34,10.34,0,0,0-1.71,6.37V14a10.6,10.6,0,0,0,1.62,6.2,5.27,5.27,0,0,0,4.55,2.3,6.08,6.08,0,0,0,4-1.19,6.61,6.61,0,0,0,1.87-4.15Z"/><path class="cls-1" d="M219.67,3.42H212V24.75h-3.13V3.42h-7.67V.84h18.49Z"/><path class="cls-1" d="M243.06,13.57a14.77,14.77,0,0,1-1.18,6.13,8.92,8.92,0,0,1-3.35,4,9.2,9.2,0,0,1-5.06,1.38,8.92,8.92,0,0,1-8.39-5.35,14.19,14.19,0,0,1-1.25-6V12.06A14.66,14.66,0,0,1,225,6,8.89,8.89,0,0,1,233.44.51a9.23,9.23,0,0,1,5.07,1.39,9,9,0,0,1,3.37,4,14.85,14.85,0,0,1,1.18,6.14ZM239.93,12a10.68,10.68,0,0,0-1.71-6.52,5.63,5.63,0,0,0-4.78-2.28,5.56,5.56,0,0,0-4.7,2.28A10.42,10.42,0,0,0,227,11.81v1.76A10.76,10.76,0,0,0,228.7,20a6.07,6.07,0,0,0,9.5.14,10.72,10.72,0,0,0,1.73-6.38Z"/><path class="cls-1" d="M258.48,15.08h-5.62v9.67h-3.17V.84h7.92a9.34,9.34,0,0,1,6.21,1.84A6.59,6.59,0,0,1,266,8a6.38,6.38,0,0,1-1.21,3.89,7.1,7.1,0,0,1-3.35,2.48l5.61,10.15v.2h-3.38Zm-5.62-2.58h4.85a5.46,5.46,0,0,0,3.73-1.22A4.11,4.11,0,0,0,262.83,8a4.33,4.33,0,0,0-1.32-3.4,5.58,5.58,0,0,0-3.82-1.2h-4.83Z"/><path class="cls-1" d="M275.72,24.75h-3.16V.84h3.16Z"/><path class="cls-1" d="M301.79,13.57a14.77,14.77,0,0,1-1.18,6.13,9,9,0,0,1-3.35,4,9.23,9.23,0,0,1-5.06,1.38,8.92,8.92,0,0,1-8.4-5.35,14.19,14.19,0,0,1-1.24-6V12.06a14.66,14.66,0,0,1,1.2-6.1A8.89,8.89,0,0,1,292.17.51a9.22,9.22,0,0,1,5.06,1.39,9,9,0,0,1,3.38,4,14.85,14.85,0,0,1,1.18,6.14ZM298.65,12A10.75,10.75,0,0,0,297,5.5a5.64,5.64,0,0,0-4.78-2.28,5.58,5.58,0,0,0-4.71,2.28,10.49,10.49,0,0,0-1.76,6.31v1.76A10.69,10.69,0,0,0,287.43,20a6.07,6.07,0,0,0,9.5.14,10.65,10.65,0,0,0,1.72-6.38Z"/><path class="cls-1" d="M318.68,24.75V.84h6.75A10.87,10.87,0,0,1,331,2.22a9.4,9.4,0,0,1,3.7,3.92A12.79,12.79,0,0,1,336,12v1.53a12.66,12.66,0,0,1-1.31,5.92,9.19,9.19,0,0,1-3.72,3.91,11.55,11.55,0,0,1-5.64,1.4Zm3.15-21.33V22.17h3.32a7.18,7.18,0,0,0,5.67-2.27,9.37,9.37,0,0,0,2-6.46V12.05a9.56,9.56,0,0,0-1.91-6.34,6.81,6.81,0,0,0-5.43-2.29Z"/><path class="cls-1" d="M356.16,13.7H345.8v8.47h12v2.58H342.65V.84h15V3.42H345.8v7.7h10.36Z"/><path class="cls-1" d="M108.64,36.44,116,57.25l7.33-20.81h7.76V65.13h-5.93V57.29l.59-13.54L118,65.13H114l-7.73-21.36.6,13.52v7.84h-5.92V36.44Z"/><path class="cls-1" d="M153.53,52.7H142.18v7.68H155.5v4.75H136.27V36.44h19.19v4.79H142.18v6.84h11.35Zm-6.17-24h6.21l-5.46,6.11h-4.63Z"/><path class="cls-1" d="M159,65.13V36.44h8.82a13.45,13.45,0,0,1,6.77,1.7A11.91,11.91,0,0,1,179.22,43a14.93,14.93,0,0,1,1.68,7.14v1.32a15,15,0,0,1-1.65,7.12,11.8,11.8,0,0,1-4.64,4.83,13.49,13.49,0,0,1-6.76,1.73Zm5.91-23.9V60.38h2.85A6.41,6.41,0,0,0,173,58.11a10.27,10.27,0,0,0,1.87-6.48V50.11q0-4.36-1.82-6.63a6.39,6.39,0,0,0-5.3-2.25Z"/><path class="cls-1" d="M191.48,65.13h-5.91V36.44h5.91Z"/><path class="cls-1" d="M219.48,55.57a10.11,10.11,0,0,1-3.42,7.29,12,12,0,0,1-8.13,2.66,10.8,10.8,0,0,1-8.68-3.71q-3.15-3.72-3.16-10.2V49.86a17.22,17.22,0,0,1,1.46-7.29,10.9,10.9,0,0,1,4.17-4.84,13,13,0,0,1,14.29,1,10.89,10.89,0,0,1,3.51,7.47h-5.91a6,6,0,0,0-1.55-4A5.73,5.73,0,0,0,208,40.89,5,5,0,0,0,203.59,43q-1.47,2.12-1.51,6.57v2.17q0,4.65,1.41,6.8a4.93,4.93,0,0,0,4.44,2.15A5.81,5.81,0,0,0,212,59.44a5.63,5.63,0,0,0,1.55-3.87Z"/><path class="cls-1" d="M246.93,51.43a17.26,17.26,0,0,1-1.5,7.43,11.29,11.29,0,0,1-4.28,4.93,11.83,11.83,0,0,1-6.4,1.73,12,12,0,0,1-6.36-1.71,11.41,11.41,0,0,1-4.34-4.9,16.83,16.83,0,0,1-1.55-7.32V50.17A17.37,17.37,0,0,1,224,42.71a11.42,11.42,0,0,1,4.32-4.94,12.61,12.61,0,0,1,12.75,0,11.33,11.33,0,0,1,4.31,4.94,17.17,17.17,0,0,1,1.53,7.44Zm-6-1.3c0-3-.54-5.29-1.62-6.85a5.7,5.7,0,0,0-9.2,0q-1.62,2.31-1.63,6.79v1.39a12.28,12.28,0,0,0,1.61,6.82,5.25,5.25,0,0,0,4.65,2.43,5.19,5.19,0,0,0,4.57-2.34c1.07-1.56,1.61-3.82,1.62-6.81Z"/><path class="cls-1" d="M266.1,57.6A3,3,0,0,0,264.92,55a15.3,15.3,0,0,0-4.25-1.89,30,30,0,0,1-4.87-2q-4.89-2.64-4.89-7.11a6.93,6.93,0,0,1,1.31-4.15A8.52,8.52,0,0,1,256,37.07a14.19,14.19,0,0,1,5.5-1A12.93,12.93,0,0,1,267,37.16a8.77,8.77,0,0,1,3.74,3.14A8.27,8.27,0,0,1,272,44.91h-5.92a3.86,3.86,0,0,0-1.24-3.06,5.08,5.08,0,0,0-3.48-1.1,5.45,5.45,0,0,0-3.37.92,2.88,2.88,0,0,0-1.21,2.41,2.77,2.77,0,0,0,1.41,2.35,15.86,15.86,0,0,0,4.15,1.77A17.91,17.91,0,0,1,269.73,52,7.47,7.47,0,0,1,272,57.56a6.92,6.92,0,0,1-2.82,5.85,12.36,12.36,0,0,1-7.59,2.11,14.6,14.6,0,0,1-6-1.21A9.59,9.59,0,0,1,251.45,61,8.49,8.49,0,0,1,250,56.11H256q0,4.74,5.67,4.74a5.52,5.52,0,0,0,3.29-.85A2.78,2.78,0,0,0,266.1,57.6Z"/><path class="cls-1" d="M296,49.37l6-12.93h6.46L299,54.73v10.4h-6V54.73l-9.42-18.29h6.49Z"/><path class="cls-1" d="M338.35,52.7H327v7.68h13.33v4.75H321.08V36.44h19.2v4.79H327v6.84h11.36Z"/><path class="cls-1" d="M358.66,57.6A3,3,0,0,0,357.48,55a15.4,15.4,0,0,0-4.26-1.89,29.86,29.86,0,0,1-4.86-2q-4.89-2.64-4.89-7.11a6.93,6.93,0,0,1,1.31-4.15,8.49,8.49,0,0,1,3.76-2.85,14.24,14.24,0,0,1,5.51-1,12.93,12.93,0,0,1,5.48,1.12,8.69,8.69,0,0,1,3.73,3.14,8.19,8.19,0,0,1,1.33,4.61h-5.91a3.86,3.86,0,0,0-1.24-3.06,5.11,5.11,0,0,0-3.49-1.1,5.47,5.47,0,0,0-3.37.92,2.89,2.89,0,0,0-1.2,2.41,2.77,2.77,0,0,0,1.41,2.35,15.86,15.86,0,0,0,4.15,1.77A17.91,17.91,0,0,1,362.29,52a7.5,7.5,0,0,1,2.3,5.59,6.92,6.92,0,0,1-2.82,5.85,12.31,12.31,0,0,1-7.58,2.11,14.6,14.6,0,0,1-6-1.21A9.53,9.53,0,0,1,344,61a8.49,8.49,0,0,1-1.43-4.88h5.93q0,4.74,5.68,4.74a5.54,5.54,0,0,0,3.29-.85A2.78,2.78,0,0,0,358.66,57.6Z"/><path class="cls-1" d="M374.5,55V65.13h-5.91V36.44h11.2a12.93,12.93,0,0,1,5.68,1.18A8.7,8.7,0,0,1,389.24,41a9.36,9.36,0,0,1,1.32,5,8.26,8.26,0,0,1-2.88,6.65q-2.9,2.43-8,2.43Zm0-4.79h5.29a5.21,5.21,0,0,0,3.57-1.1A4,4,0,0,0,384.59,46a4.71,4.71,0,0,0-1.24-3.41,4.61,4.61,0,0,0-3.43-1.34H374.5Z"/><path class="cls-1" d="M411.89,52.7H400.54v7.68h13.32v4.75H394.62V36.44h19.2v4.79H400.54v6.84h11.35Z"/><path class="cls-1" d="M439.85,55.57a10.19,10.19,0,0,1-3.42,7.29,12,12,0,0,1-8.13,2.66,10.78,10.78,0,0,1-8.68-3.71q-3.17-3.72-3.16-10.2V49.86a17.07,17.07,0,0,1,1.46-7.29,10.94,10.94,0,0,1,4.16-4.84,13,13,0,0,1,14.3,1,11,11,0,0,1,3.51,7.47H434a6,6,0,0,0-1.55-4,5.76,5.76,0,0,0-4.05-1.25A5,5,0,0,0,424,43c-1,1.41-1.48,3.6-1.5,6.57v2.17q0,4.65,1.41,6.8a4.93,4.93,0,0,0,4.44,2.15,5.81,5.81,0,0,0,4.09-1.26,5.67,5.67,0,0,0,1.55-3.87Z"/><path class="cls-1" d="M450,65.13H444.1V36.44H450Z"/><path class="cls-1" d="M472.05,59.22H461.68l-2,5.91h-6.29L464.1,36.44h5.48l10.74,28.69H474Zm-8.77-4.79h7.17l-3.61-10.74Z"/><path class="cls-1" d="M488.91,60.38h12.56v4.75H483V36.44h5.91Z"/><path class="cls-1" d="M511.14,65.13h-5.91V36.44h5.91Z"/><path class="cls-1" d="M531.5,57.6A3.06,3.06,0,0,0,530.32,55a15.4,15.4,0,0,0-4.26-1.89,30.4,30.4,0,0,1-4.87-2q-4.89-2.64-4.88-7.11a6.86,6.86,0,0,1,1.31-4.15,8.44,8.44,0,0,1,3.76-2.85,14.2,14.2,0,0,1,5.51-1,12.88,12.88,0,0,1,5.47,1.12,8.72,8.72,0,0,1,3.74,3.14,8.19,8.19,0,0,1,1.33,4.61h-5.91a3.89,3.89,0,0,0-1.24-3.06,5.11,5.11,0,0,0-3.49-1.1,5.45,5.45,0,0,0-3.37.92,2.89,2.89,0,0,0-1.2,2.41,2.77,2.77,0,0,0,1.41,2.35,15.77,15.77,0,0,0,4.14,1.77q5.06,1.52,7.35,3.77a7.47,7.47,0,0,1,2.31,5.59,6.92,6.92,0,0,1-2.82,5.85A12.36,12.36,0,0,1,527,65.52a14.66,14.66,0,0,1-6-1.21A9.5,9.5,0,0,1,516.85,61a8.42,8.42,0,0,1-1.43-4.88h5.93q0,4.74,5.67,4.74a5.56,5.56,0,0,0,3.3-.85A2.81,2.81,0,0,0,531.5,57.6Z"/><path class="cls-1" d="M563,41.23h-8.79v23.9h-5.91V41.23h-8.67V36.44H563Z"/><path class="cls-1" d="M580.23,59.22H569.86l-2,5.91h-6.28l10.68-28.69h5.48l10.74,28.69h-6.29Zm-8.77-4.79h7.17L575,43.69Z"/><path class="cls-1" d="M606.06,57.6A3,3,0,0,0,604.88,55a15.4,15.4,0,0,0-4.26-1.89,30.24,30.24,0,0,1-4.86-2q-4.89-2.64-4.89-7.11a6.93,6.93,0,0,1,1.31-4.15A8.47,8.47,0,0,1,596,37.07a14.19,14.19,0,0,1,5.5-1,12.93,12.93,0,0,1,5.48,1.12,8.69,8.69,0,0,1,3.73,3.14A8.19,8.19,0,0,1,612,44.91h-5.91a3.86,3.86,0,0,0-1.24-3.06,5.11,5.11,0,0,0-3.49-1.1,5.49,5.49,0,0,0-3.37.92,2.89,2.89,0,0,0-1.2,2.41,2.77,2.77,0,0,0,1.41,2.35,15.86,15.86,0,0,0,4.15,1.77A17.91,17.91,0,0,1,609.69,52a7.46,7.46,0,0,1,2.3,5.59,6.91,6.91,0,0,1-2.81,5.85,12.36,12.36,0,0,1-7.59,2.11,14.6,14.6,0,0,1-6-1.21A9.59,9.59,0,0,1,591.41,61,8.49,8.49,0,0,1,590,56.11h5.94q0,4.74,5.67,4.74a5.52,5.52,0,0,0,3.29-.85A2.78,2.78,0,0,0,606.06,57.6Z"/><path class="cls-1" d="M0,27.55,10.85,8.75,26,17.51V0h21.7V17.51L62.87,8.75l10.85,18.8L58.56,36.3l15.16,8.75L62.87,63.85,47.71,55.09V72.6H26V55.09L10.85,63.84,0,45.05,15.16,36.3ZM26.65,72H47.08V54l15.56,9,10.22-17.7-15.57-9,15.57-9L62.64,9.62l-15.56,9V.64H26.65v18l-15.57-9L.87,27.31l15.56,9-15.56,9L11.08,63l15.57-9V72Z"/><g class="cls-2"><path class="cls-1" d="M26.65,72H47.08V54l15.56,9,10.22-17.7-15.57-9,15.57-9L62.64,9.62l-15.56,9V.64H26.65v18l-15.57-9L.87,27.31l15.56,9-15.56,9L11.08,63l15.57-9V72Z"/></g><path class="cls-1" d="M46.13,1.59V20.25l16.16-9.33,9.27,16L55.39,36.3l16.17,9.33-9.27,16L46.13,52.34V71H27.6V52.34L11.43,61.68l-9.26-16L18.33,36.3,2.17,27l9.26-16L27.6,20.26V1.59ZM44.86,2.86h-16V22.45l-17-9.79L3.9,26.5l17,9.8-17,9.8,8,13.84,17-9.8v19.6h16V50.14l17,9.8,8-13.84-17-9.8,17-9.8-8-13.84-17,9.79V2.86Z"/><path class="cls-1" d="M37.5,54.57v0h0Z"/><path class="cls-1" d="M37.39,36.23a3.75,3.75,0,0,0-1.11.61h0a1.9,1.9,0,0,0-.81,1.46c0,3.16.06,5.91.1,8.29l.5-.21a3.35,3.35,0,0,0,1.24-.71h0v0a1.11,1.11,0,0,0,.39-.73h0c0-2.56.06-5.49.09-8.86l-.13.06Z"/><path class="cls-1" d="M36.63,56.8h0a2.82,2.82,0,0,1-.76-.21c.21,4.74.49,5.43.79,5.43s.57-.67.79-5.23l-.45,0Z"/><path class="cls-1" d="M36.34,49.45c-.43.21-.71.47-.71.71h0c0,2,.09,3.69.14,5.09a2.21,2.21,0,0,1,.33,0l.47,0c.35-.07.9-.26.92-.55v0h0c0-1.53.1-3.38.14-5.59l-.72.26C36.68,49.32,36.47,49.39,36.34,49.45Z"/><path class="cls-1" d="M37.19,18.73a1.73,1.73,0,0,0-1.27-.49,2.13,2.13,0,0,0-.37,0h0l-.12.05h0l0,0c0,5.64,0,10.56,0,14.85l.6-.28.17-.07a3,3,0,0,0,1-.77h0a2.31,2.31,0,0,0,.56-1.58h0c0-3.35,0-7,0-11.13A5.42,5.42,0,0,1,37.19,18.73Z"/><polygon class="cls-1" points="37.5 54.57 37.5 54.57 37.5 54.57 37.5 54.57"/><path class="cls-1" d="M38.26,44.85a1.65,1.65,0,0,1-.54,1.21c-.58.62-1.3.73-2.47,1.31a3.1,3.1,0,0,0-1.76,3.09,3.05,3.05,0,0,0,1.66,2.15l-.06-2.42h0c0-.46.3-.92,1-1.26a8.92,8.92,0,0,0,2.95-1.45,3.58,3.58,0,0,0,.93-4.2,4.6,4.6,0,0,0-1.68-1.78l0,3.34Z"/><path class="cls-1" d="M37.69,32.44a3.45,3.45,0,0,1-1.25.92,7.79,7.79,0,0,0-2,1.17,4.65,4.65,0,0,0-1.71,4.7,5.25,5.25,0,0,0,2.26,3l-.05-3.94h0a2.46,2.46,0,0,1,1-1.87,5.37,5.37,0,0,1,1.52-.81,5.82,5.82,0,0,0,2.1-1.5,5.62,5.62,0,0,0,1.18-5.14,5.33,5.33,0,0,0-2.31-3.19v4.6A2.93,2.93,0,0,1,37.69,32.44Z"/><path class="cls-1" d="M38.43,15.87a15.13,15.13,0,0,0-2.76,0,5.71,5.71,0,0,0-1,.17A4.87,4.87,0,0,0,32,17.82a5.78,5.78,0,0,0-1.08,3.57c.08,2.52,1.92,4.34,3.95,5.42v-3a3.66,3.66,0,0,1-1.62-2.53,3.21,3.21,0,0,1,2-3.51l.16-.06a2.41,2.41,0,0,1,2.22.62,5.05,5.05,0,0,0,2.9,1.47c1.25.29,1.62.1,1.87-.44,0,0-.66-.17-1.31-.37s-1.21-.39-1.18-.72l2.9.32C43.14,17.42,41.69,16.16,38.43,15.87Zm1.35,1.63c-.41-.09-.71-.32-.66-.5s.4-.27.81-.18.71.32.67.51S40.19,17.59,39.78,17.5Z"/><path class="cls-1" d="M36.65,55.72c-.51.08-.83,0-.86.14s.24.28.88.37A2,2,0,0,0,39,54.73a2.12,2.12,0,0,0-.94-2.09l0,2C38.06,55.34,37.14,55.64,36.65,55.72Z"/><path class="cls-1" d="M37.85,11.82a1.24,1.24,0,0,0-2.48,0v3.54l.25,0a15.59,15.59,0,0,1,1.58-.08h.67V11.82Z"/></g></g></svg>