<svg xmlns="http://www.w3.org/2000/svg" xmlns:xlink="http://www.w3.org/1999/xlink" viewBox="0 0 72.94 72.6"><defs><style>.cls-1{fill:none;}.cls-2{fill:#00b4ff;}.cls-3{opacity:0.25;}.cls-4{clip-path:url(#clip-path);}</style><clipPath id="clip-path"><rect class="cls-1" x="0.48" y="0.64" width="71.99" height="71.32" rx="1.07" ry="1.07"/></clipPath></defs><title>Recurso 1</title><g id="Capa_2" data-name="Capa 2"><g id="Capa_1-2" data-name="Capa 1"><path class="cls-2" d="M.14,26.62,9.92,9.68a1.07,1.07,0,0,1,1.46-.39L24,16.58a1.07,1.07,0,0,0,1.61-.93V1.07A1.07,1.07,0,0,1,26.69,0H46.25a1.07,1.07,0,0,1,1.07,1.07V15.65a1.08,1.08,0,0,0,1.61.93L61.56,9.29A1.07,1.07,0,0,1,63,9.68L72.8,26.62a1.07,1.07,0,0,1-.39,1.46L59.78,35.37a1.07,1.07,0,0,0,0,1.86l12.63,7.29A1.07,1.07,0,0,1,72.8,46L63,62.92a1.07,1.07,0,0,1-1.46.39L48.93,56a1.07,1.07,0,0,0-1.61.92V71.53a1.07,1.07,0,0,1-1.07,1.07H26.69a1.07,1.07,0,0,1-1.07-1.07V56.94A1.07,1.07,0,0,0,24,56L11.39,63.31a1.08,1.08,0,0,1-1.47-.39L.14,46a1.07,1.07,0,0,1,.4-1.46l12.62-7.29a1.07,1.07,0,0,0,0-1.86L.53,28.08A1.08,1.08,0,0,1,.14,26.62ZM27.32,72h18.3a1.07,1.07,0,0,0,1.07-1.07v-15a1.07,1.07,0,0,1,1.6-.93l13,7.52a1.06,1.06,0,0,0,1.46-.39l9.15-15.84a1.07,1.07,0,0,0-.39-1.46l-13-7.52a1.07,1.07,0,0,1,0-1.86l13-7.52a1.08,1.08,0,0,0,.39-1.46L62.78,10.55a1.07,1.07,0,0,0-1.46-.4l-13,7.53a1.07,1.07,0,0,1-1.6-.93V1.7A1.06,1.06,0,0,0,45.62.64H27.32A1.06,1.06,0,0,0,26.25,1.7V16.75a1.07,1.07,0,0,1-1.6.93l-13-7.53a1.07,1.07,0,0,0-1.46.4L1,26.39a1.08,1.08,0,0,0,.39,1.46l13,7.52a1.07,1.07,0,0,1,0,1.86l-13,7.52A1.07,1.07,0,0,0,1,46.21l9.15,15.84a1.06,1.06,0,0,0,1.46.39l13-7.52a1.07,1.07,0,0,1,1.6.92v15A1.07,1.07,0,0,0,27.32,72Z"/><g class="cls-3"><g class="cls-4"><polygon class="cls-2" points="26.25 71.96 46.69 71.96 46.69 53.99 62.25 62.98 72.46 45.28 56.9 36.3 72.46 27.32 62.25 9.62 46.69 18.6 46.69 0.64 26.25 0.64 26.25 18.61 10.69 9.62 0.48 27.31 16.04 36.3 0.48 45.28 10.69 62.98 26.25 53.99 26.25 71.96"/></g></g><path class="cls-2" d="M45.74,2.66V18.4a1.07,1.07,0,0,0,1.6.93L61,11.46a1.07,1.07,0,0,1,1.46.39L70.63,26a1.06,1.06,0,0,1-.39,1.46L56.6,35.37a1.08,1.08,0,0,0,0,1.86L70.24,45.1a1.06,1.06,0,0,1,.39,1.46L62.44,60.75a1.07,1.07,0,0,1-1.46.39L47.34,53.27a1.07,1.07,0,0,0-1.6.93V69.94A1.07,1.07,0,0,1,44.67,71H28.28a1.07,1.07,0,0,1-1.07-1.07V54.2a1.07,1.07,0,0,0-1.61-.93L12,61.14a1.06,1.06,0,0,1-1.46-.39L2.31,46.56A1.07,1.07,0,0,1,2.7,45.1l13.64-7.87a1.08,1.08,0,0,0,0-1.86L2.7,27.5A1.08,1.08,0,0,1,2.31,26l8.2-14.19A1.06,1.06,0,0,1,12,11.46L25.6,19.33a1.08,1.08,0,0,0,1.61-.93V2.66a1.06,1.06,0,0,1,1.07-1.07H44.67A1.06,1.06,0,0,1,45.74,2.66Zm-2.34.2H29.55a1.07,1.07,0,0,0-1.07,1.07V20.6a1.08,1.08,0,0,1-1.61.93L12.43,13.19a1.08,1.08,0,0,0-1.46.39l-6.92,12A1.08,1.08,0,0,0,4.44,27l14.44,8.33a1.08,1.08,0,0,1,0,1.86L4.44,45.56A1.07,1.07,0,0,0,4.05,47L11,59a1.07,1.07,0,0,0,1.46.4l14.44-8.34a1.07,1.07,0,0,1,1.61.93V68.67a1.07,1.07,0,0,0,1.07,1.07H43.4a1.07,1.07,0,0,0,1.07-1.07V52a1.07,1.07,0,0,1,1.6-.93l14.44,8.34A1.07,1.07,0,0,0,62,59l6.92-12a1.07,1.07,0,0,0-.39-1.46L54.06,37.23a1.08,1.08,0,0,1,0-1.86L68.5,27a1.08,1.08,0,0,0,.39-1.47L62,13.58a1.07,1.07,0,0,0-1.46-.39L46.07,21.53a1.07,1.07,0,0,1-1.6-.93V3.93A1.07,1.07,0,0,0,43.4,2.86Z"/><path class="cls-2" d="M37.11,54.57a.08.08,0,0,0,0,0h0Z"/><path class="cls-2" d="M37,36.23a3.85,3.85,0,0,0-1.11.6h0a1.87,1.87,0,0,0-.81,1.46c0,3.16.06,5.91.1,8.29l.5-.21a3.35,3.35,0,0,0,1.24-.71h0v0a1.07,1.07,0,0,0,.38-.73c0-2.56.07-5.49.1-8.86l-.13.05-.28.13"/><path class="cls-2" d="M36.24,56.8h0a2.82,2.82,0,0,1-.76-.21c.21,4.74.49,5.43.79,5.43s.57-.67.79-5.24l-.45,0h-.33"/><path class="cls-2" d="M36,49.45c-.43.21-.71.47-.71.71h0c0,2,.09,3.69.14,5.09a2.21,2.21,0,0,1,.33,0l.47,0c.35-.07.9-.27.92-.55v0h0c.06-1.53.1-3.38.15-5.59l-.73.26c-.23.08-.44.15-.57.21"/><path class="cls-2" d="M36.8,18.73a1.73,1.73,0,0,0-1.27-.49,2.13,2.13,0,0,0-.37,0h0l-.11.05h0l0,0C35,24,35,28.9,35,33.19l.6-.28.17-.07a3,3,0,0,0,1-.77h0a2.36,2.36,0,0,0,.56-1.58h0c0-3.35,0-7,0-11.13a6.17,6.17,0,0,1-.67-.61"/><polygon class="cls-2" points="37.1 54.57 37.1 54.57 37.1 54.57 37.1 54.57"/><path class="cls-2" d="M37.87,44.85a1.65,1.65,0,0,1-.54,1.21c-.58.62-1.3.73-2.47,1.31a3.1,3.1,0,0,0-1.76,3.09,3.05,3.05,0,0,0,1.66,2.15l-.06-2.42h0c0-.46.3-.92,1-1.26a8.78,8.78,0,0,0,2.95-1.46,3.56,3.56,0,0,0,.93-4.19,4.6,4.6,0,0,0-1.68-1.78l0,3.34Z"/><path class="cls-2" d="M37.3,32.44a3.41,3.41,0,0,1-1.26.92,7.91,7.91,0,0,0-2,1.17,4.65,4.65,0,0,0-1.71,4.7,4.12,4.12,0,0,0,.18.53,1.07,1.07,0,0,0,2.05-.46l0-1a2.46,2.46,0,0,1,1-1.87,5.37,5.37,0,0,1,1.52-.81,5.82,5.82,0,0,0,2.1-1.5,5.62,5.62,0,0,0,1.18-5.14,4.86,4.86,0,0,0-.25-.79,1.08,1.08,0,0,0-2.07.4v1.8a2.88,2.88,0,0,1-.71,2.09"/><path class="cls-2" d="M38,15.87a15.13,15.13,0,0,0-2.76,0,5.71,5.71,0,0,0-1,.17,4.87,4.87,0,0,0-2.75,1.75,5.64,5.64,0,0,0,1.06,7.75,1.08,1.08,0,0,0,1.81-.79v-.46a1.1,1.1,0,0,0-.38-.82,3.35,3.35,0,0,1-1.24-2.21,3.22,3.22,0,0,1,2-3.51l.17-.06a2.41,2.41,0,0,1,2.22.62,5.05,5.05,0,0,0,2.9,1.47c1.25.29,1.62.1,1.87-.44,0,0-.66-.17-1.31-.37s-1.21-.39-1.18-.72h0a1.07,1.07,0,0,0,.42-2.09A12.33,12.33,0,0,0,38,15.87m1.35,1.63c-.41-.09-.71-.32-.67-.5s.41-.27.82-.18.71.32.67.5-.41.27-.82.18"/><path class="cls-2" d="M36.26,55.72c-.51.08-.83,0-.86.14s.24.28.88.37a2,2,0,0,0,2.35-1.5,2.13,2.13,0,0,0-.94-2.09l0,2c0,.75-.91,1-1.4,1.13"/><path class="cls-2" d="M37.46,11.82a1.24,1.24,0,0,0-2.48,0V14.2l1.14,1.06h1.36V11.82Z"/></g></g></svg>
